General
Unique ID                                : 257696381987919430686762685889710323823 (0xC1DE8492ACBA33C5B8616E4DC91AF86F)
Complete name                            : Tokyo Ska Paradise Orchestra - Good Luck, My Friend! (feat. Murotsuyoshi & SAKANA-KUN) [WEB-DL 1080p AAC 2.0 x264-SEKAI].mkv
Format                                   : Matroska
Format version                           : Version 4
File size                                : 242 MiB
Duration                                 : 3 min 26 s
Overall bit rate                         : 9 850 kb/s
Frame rate                               : 29.970 FPS
Title                                    : Tokyo Ska Paradise Orchestra - Good Luck, My Friend! (feat. Murotsuyoshi & SAKANA-KUN) [WEB-DL 1080p AAC 2.0 x264-SEKAI]
Encoded date                             : 2026-05-02 04:17:57 UTC
Writing application                      : mkvmerge 98.0 ('Chonks') 64-bit
Writing library                          : libebml v1.4.5 + libmatroska v1.7.1
Website                                  : https://sekai-archivist.blogspot.com/

Video
ID                                       : 1
Format                                   : AVC
Format/Info                              : Advanced Video Codec
Format profile                           : High@L4
Format settings                          : CABAC / 4 Ref Frames
Format settings, CABAC                   : Yes
Format settings, Reference frames        : 4 frames
Format settings, Slice count             : 8 slices per frame
Codec ID                                 : V_MPEG4/ISO/AVC
Duration                                 : 3 min 26 s
Bit rate                                 : 9 551 kb/s
Width                                    : 1 916 pixels
Height                                   : 1 076 pixels
Display aspect ratio                     : 16:9
Frame rate mode                          : Constant
Frame rate                               : 29.970 (30000/1001) FPS
Color space                              : YUV
Chroma subsampling                       : 4:2:0 (Type 2)
Bit depth                                : 8 bits
Scan type                                : Progressive
Bits/(Pixel*Frame)                       : 0.155
Stream size                              : 235 MiB (97%)
Language                                 : Japanese
Default                                  : Yes
Forced                                   : No
Color range                              : Limited
Color primaries                          : BT.709
Transfer characteristics                 : BT.709
Matrix coefficients                      : BT.709

Audio
ID                                       : 2
Format                                   : AAC LC
Format/Info                              : Advanced Audio Codec Low Complexity
Codec ID                                 : A_AAC-2
Duration                                 : 3 min 26 s
Bit rate                                 : 298 kb/s
Channel(s)                               : 2 channels
Channel layout                           : L R
Sampling rate                            : 48.0 kHz
Frame rate                               : 46.875 FPS (1024 SPF)
Compression mode                         : Lossy
Stream size                              : 7.33 MiB (3%)
Language                                 : Japanese
Default                                  : Yes
Forced                                   : No


